<svg width="37" height="36" viewBox="0 0 37 36" fill="none" xmlns="http://www.w3.org/2000/svg">
<rect x="0.400391" width="36" height="36" rx="18" fill="#E5E5E5"/>
<path d="M23.5566 22H24.9004C25.1504 22 25.4004 21.7812 25.4004 21.5V20.1875C25.4004 19.9062 25.2754 19.6562 25.0879 19.4688L17.8691 12.25L15.6191 14.5L22.8379 21.7188C23.0254 21.9062 23.2754 22 23.5566 22ZM14.9004 13.7812L17.1504 11.5312L15.8379 10.2188C15.7129 10.0938 15.5254 10.0312 15.3066 10.0312C15.1191 10.0312 14.9316 10.0938 14.7754 10.2188L13.6191 11.4062C13.4629 11.5625 13.4004 11.75 13.4004 11.9375C13.4004 12.1562 13.4629 12.3438 13.6191 12.4688L14.9004 13.7812ZM12.4004 21.5C12.4004 21.7812 12.6191 22 12.9004 22H21.7441L20.2441 20.5H12.9004C12.6191 20.5 12.4004 20.75 12.4004 21V21.5ZM27.4004 14H21.0566L22.5566 15.5H26.9004V24.5H9.90039V15.5H15.2441L14.9004 15.1875L14.2129 14.5L13.7441 14H9.40039C8.83789 14 8.40039 14.4688 8.40039 15V25C8.40039 25.5625 8.83789 26 9.40039 26H27.4004C27.9316 26 28.4004 25.5625 28.4004 25V15C28.4004 14.4688 27.9316 14 27.4004 14ZM12.9004 19.5H19.2441L17.7441 18H12.9004C12.6191 18 12.4004 18.25 12.4004 18.5V19C12.4004 19.2812 12.6191 19.5 12.9004 19.5Z" fill="#5B6173"/>
</svg>
