<svg width="36" height="36" viewBox="0 0 36 36" fill="none" xmlns="http://www.w3.org/2000/svg">
<rect width="36" height="36" rx="18" fill="#CBFFB9"/>
<path d="M28.4997 11H7.49967C6.84342 11 6.33301 11.5469 6.33301 12.1667V23.8333C6.33301 24.4896 6.84342 25 7.49967 25H28.4997C29.1195 25 29.6663 24.4896 29.6663 23.8333V12.1667C29.6663 11.5469 29.1195 11 28.4997 11ZM27.9163 20.9167C26.6038 20.9167 25.583 21.974 25.583 23.25H10.4163C10.4163 21.974 9.35905 20.9167 8.08301 20.9167V15.0833C9.35905 15.0833 10.4163 14.0625 10.4163 12.75H25.583C25.583 14.0625 26.6038 15.0833 27.9163 15.0833V20.9167ZM17.9997 14.5C16.359 14.5 15.083 16.0677 15.083 18C15.083 19.9688 16.359 21.5 17.9997 21.5C19.6038 21.5 20.9163 19.9688 20.9163 18C20.9163 16.0677 19.6038 14.5 17.9997 14.5Z" fill="#2CA55C"/>
</svg>
