<svg width="37" height="36" viewBox="0 0 37 36" fill="none" xmlns="http://www.w3.org/2000/svg">
<rect x="0.599609" width="36" height="36" rx="18" fill="#CDE7FF"/>
<path d="M24.808 8.42196L9.64138 17.172C8.36534 17.9011 8.47471 19.7605 9.82367 20.3074L14.0164 22.0209V25.0834C14.0164 26.797 16.1674 27.4897 17.1518 26.1407L18.756 23.9897L22.8393 25.6668C23.058 25.7761 23.2768 25.8126 23.4955 25.8126C23.7872 25.8126 24.0789 25.7397 24.3705 25.5938C24.8445 25.3022 25.1362 24.8647 25.2455 24.3178L27.3966 10.2084C27.6153 8.75009 26.0476 7.6928 24.808 8.42196ZM15.7664 25.0834V22.7501L17.0789 23.297L15.7664 25.0834ZM23.4955 24.0626L17.881 21.7293L23.0216 14.3647C23.3862 13.7813 22.657 13.1251 22.1466 13.599L14.4174 20.3074L10.5164 18.6668L25.683 9.91676L23.4955 24.0626Z" fill="#007AFF"/>
</svg>
